<svg width="22" height="20" viewBox="0 0 22 20" fill="none" xmlns="http://www.w3.org/2000/svg">
<path d="M11.0005 4.05485e-05C9.4684 -0.00273137 7.95614 0.346579 6.58045 1.02101C5.20477 1.69544 4.00244 2.67696 3.06629 3.8898C2.13013 5.10264 1.48518 6.51438 1.18121 8.01604C0.877239 9.51769 0.922382 11.0691 1.31315 12.5506C1.70392 14.032 2.42987 15.4038 3.43497 16.5602C4.44006 17.7166 5.69742 18.6265 7.11 19.2198C8.52257 19.8131 10.0526 20.0739 11.5819 19.982C13.1113 19.8902 14.5991 19.4481 15.9305 18.69H16.0005H16.0505C17.9758 17.5941 19.4826 15.8898 20.3345 13.8448C21.1863 11.7997 21.335 9.52974 20.7571 7.39107C20.1793 5.25241 18.9076 3.36618 17.1417 2.02845C15.3758 0.690735 13.2158 -0.022735 11.0005 4.05485e-05ZM12.0005 2.07004C13.7605 2.29323 15.3964 3.09514 16.6509 4.34963C17.9054 5.60412 18.7073 7.24002 18.9305 9.00004H12.0005V2.07004ZM11.0005 18C8.97502 17.9862 7.03017 17.2046 5.55845 15.8129C4.08673 14.4212 3.19772 12.523 3.07081 10.5014C2.94391 8.47988 3.58857 6.48543 4.87469 4.9206C6.16082 3.35577 7.99265 2.33705 10.0005 2.07004V10C10.0045 10.1198 10.0281 10.238 10.0705 10.35V10.43V10.5L14.0705 17.37C13.1003 17.7853 12.0559 17.9996 11.0005 18ZM15.8305 16.36L12.7305 11H18.9305C18.7959 12.0546 18.4524 13.0718 17.9201 13.9921C17.3878 14.9124 16.6775 15.7174 15.8305 16.36Z" fill="#131613"/>
</svg>
