<svg width="20" height="18" viewBox="0 0 20 18" fill="none" xmlns="http://www.w3.org/2000/svg">
<path d="M8.00017 10H12.0002C12.2654 10 12.5197 9.89464 12.7073 9.70711C12.8948 9.51957 13.0002 9.26522 13.0002 9C13.0002 8.73478 12.8948 8.48043 12.7073 8.29289C12.5197 8.10536 12.2654 8 12.0002 8H8.00017C7.73495 8 7.4806 8.10536 7.29306 8.29289C7.10553 8.48043 7.00017 8.73478 7.00017 9C7.00017 9.26522 7.10553 9.51957 7.29306 9.70711C7.4806 9.89464 7.73495 10 8.00017 10ZM17.0002 0H3.00017C2.29663 0.00545837 1.61738 0.258013 1.08118 0.713516C0.544969 1.16902 0.185911 1.79849 0.0667703 2.49189C-0.0523709 3.18529 0.0759841 3.89851 0.429398 4.50687C0.782811 5.11523 1.3388 5.58002 2.00017 5.82V15C2.00017 15.7956 2.31624 16.5587 2.87885 17.1213C3.44146 17.6839 4.20452 18 5.00017 18H15.0002C15.7958 18 16.5589 17.6839 17.1215 17.1213C17.6841 16.5587 18.0002 15.7956 18.0002 15V5.82C18.6615 5.58002 19.2175 5.11523 19.5709 4.50687C19.9244 3.89851 20.0527 3.18529 19.9336 2.49189C19.8144 1.79849 19.4554 1.16902 18.9192 0.713516C18.383 0.258013 17.7037 0.00545837 17.0002 0ZM16.0002 15C16.0002 15.2652 15.8948 15.5196 15.7073 15.7071C15.5197 15.8946 15.2654 16 15.0002 16H5.00017C4.73495 16 4.4806 15.8946 4.29306 15.7071C4.10553 15.5196 4.00017 15.2652 4.00017 15V6H16.0002V15ZM17.0002 4H3.00017C2.73495 4 2.4806 3.89464 2.29306 3.70711C2.10553 3.51957 2.00017 3.26522 2.00017 3C2.00017 2.73478 2.10553 2.48043 2.29306 2.29289C2.4806 2.10536 2.73495 2 3.00017 2H17.0002C17.2654 2 17.5197 2.10536 17.7073 2.29289C17.8948 2.48043 18.0002 2.73478 18.0002 3C18.0002 3.26522 17.8948 3.51957 17.7073 3.70711C17.5197 3.89464 17.2654 4 17.0002 4Z" fill="#131613"/>
</svg>
